# xmcd
#
# Track frame offsets:
#	150
#	21072
#	40297
#	56367
#	76777
#	87000
#	99400
#	120325
#	139192
#	154480
#	177755
#
# Disc length: 2631 seconds
#
# Revision: 0
# Processed by: cddbd v1.5PL3 Copyright (c) Steve Scherf et al.
# Submitted via: dBpowerAMP V4.0
#
DISCID=7b0a450b
DTITLE=Arno Adams - D'r is gen verschil
DYEAR=2000
DGENRE=Blues
TTITLE0=Wie de wind weit
TTITLE1=Haaj van mich
TTITLE2=Splinters in plaats van vlinders
TTITLE3=Sintermerte
TTITLE4=Ôzze Jezus
TTITLE5=Johnny
TTITLE6=De houfstad
TTITLE7=Laeg gezaoge
TTITLE8=Dreej daag aad
TTITLE9=Laote we danse
TTITLE10=D'r is gen verschil
EXTD=Limburgs
EXTT0=
EXTT1=
EXTT2=
EXTT3=
EXTT4=
EXTT5=
EXTT6=
EXTT7=
EXTT8=
EXTT9=
EXTT10=
PLAYORDER=
